<?xml version="1.0" encoding="utf-8"?>
<!-- Generator: Adobe Illustrator 22.0.1, SVG Export Plug-In . SVG Version: 6.00 Build 0)  -->
<svg version="1.1" id="레이어_1" xmlns="http://www.w3.org/2000/svg" xmlns:xlink="http://www.w3.org/1999/xlink" x="0px"
	 y="0px" viewBox="0 0 240 60" style="enable-background:new 0 0 240 60;" xml:space="preserve">
<g id="웹_1920_1">
	<g id="사각형_3" transform="translate(717 417)">
		<rect x="-715" y="-394" style="fill:#0076FF;" width="12" height="12"/>
		<rect x="-714.5" y="-393.5" style="fill:none;stroke:#0076FF;" width="11" height="11"/>
	</g>
	<g id="사각형_4" transform="translate(731 403)">
		<rect x="-715" y="-394" style="fill:#0076FF;" width="12" height="12"/>
		<rect x="-714.5" y="-393.5" style="fill:none;stroke:#0076FF;" width="11" height="11"/>
	</g>
	<g id="사각형_5" transform="translate(745 403)">
		<rect x="-715" y="-394" style="fill:#0076FF;" width="11" height="11"/>
		<rect x="-714.5" y="-393.5" style="fill:none;stroke:#0076FF;" width="10" height="10"/>
	</g>
	<g id="사각형_6" transform="translate(745 403)">
		<rect x="-715" y="-394" style="fill:#0076FF;" width="12" height="12"/>
		<rect x="-714.5" y="-393.5" style="fill:none;stroke:#0076FF;" width="11" height="11"/>
	</g>
	<g id="사각형_7" transform="translate(731 417)">
		<rect x="-715" y="-394" style="fill:#0076FF;" width="12" height="12"/>
		<rect x="-714.5" y="-393.5" style="fill:none;stroke:#0076FF;" width="11" height="11"/>
	</g>
	<g id="사각형_8" transform="translate(745 417)">
		<rect x="-715" y="-394" style="fill:#0076FF;" width="12" height="12"/>
		<rect x="-714.5" y="-393.5" style="fill:none;stroke:#0076FF;" width="11" height="11"/>
	</g>
	<g id="사각형_9" transform="translate(717 403)">
		<rect x="-715" y="-394" style="fill:#0076FF;" width="12" height="12"/>
		<rect x="-714.5" y="-393.5" style="fill:none;stroke:#0076FF;" width="11" height="11"/>
	</g>
	<g id="사각형_10" transform="translate(717 431)">
		<rect x="-715" y="-394" style="fill:#0076FF;" width="12" height="12"/>
		<rect x="-714.5" y="-393.5" style="fill:none;stroke:#0076FF;" width="11" height="11"/>
	</g>
	<g id="사각형_11" transform="translate(731 431)">
		<rect x="-715" y="-394" style="fill:#0076FF;" width="12" height="12"/>
		<rect x="-714.5" y="-393.5" style="fill:none;stroke:#0076FF;" width="11" height="11"/>
	</g>
	<g id="사각형_12" transform="translate(745 431)">
		<rect x="-715" y="-394" style="fill:#0076FF;" width="12" height="12"/>
		<rect x="-714.5" y="-393.5" style="fill:none;stroke:#0076FF;" width="11" height="11"/>
	</g>
	<g style="enable-background:new">
		<path d="M57.1,48.8V9.6h4.3v14.2h0.3c2.1-1.3,4.8-2.4,8.6-2.4c5.3,0,10.8,3.2,10.8,13.6v0.7c0,9.3-4.9,14.6-13.8,14.6
			C64,50.3,59.6,49.7,57.1,48.8z M76.6,36.4v-1.1c0-7.7-2.7-10.2-8.3-10.2c-2.9,0-5.4,1.1-6.9,1.8v18.9c1.3,0.6,3.2,1,6,1
			C72.4,46.7,76.6,44.3,76.6,36.4z"/>
		<path d="M85.5,9.6h4.3v40.1h-4.3V9.6z"/>
		<path d="M95.7,42V21.9h4.3v19.5c0,3.6,1.3,5,5.4,5c3,0,5.4-1.1,7.7-2.2V21.9h4.3v27.8h-3.7l-0.4-2.5H113c-2.5,1.7-5.5,3-8.8,3
			C98.8,50.2,95.7,47.4,95.7,42z"/>
		<path d="M121.5,36.2v-0.8c0-9.7,5.7-14,12.1-14c7.6,0,11.2,4.4,11.2,13v2.4h-18.9c0.2,6.9,3.5,9.6,9.5,9.6c3.7,0,6.2-0.9,8.7-2.1
			v3.2c-1.7,1.2-4.9,2.6-9.4,2.6C126,50.2,121.5,44.8,121.5,36.2z M125.9,33.4h14.4c0-6-2.3-8.6-6.8-8.6
			C130.1,24.8,126.4,26.9,125.9,33.4z"/>
		<path d="M149,9.6h4.3v14.7h0.3c2.4-1.7,5.9-2.9,9.4-2.9c5.4,0,8.1,2.2,8.1,7.6v20.7h-4.3V29.8c0-3.4-1.2-4.8-5.6-4.8
			c-2.6,0-5.5,1-7.8,2.1v22.5H149V9.6z"/>
		<path d="M175.1,36.3v-0.8c0-8.8,5.1-14.1,12.6-14.1c7.8,0,12.6,5.1,12.6,13.9V36c0,8.8-5.2,14.1-12.7,14.1
			C179.8,50.2,175.1,45.1,175.1,36.3z M195.9,36.5v-1.4c0-7.7-3.8-10.2-8.3-10.2c-5,0-8.2,3.6-8.2,10.1v1.4c0,7.7,3.6,10.2,8.3,10.2
			C192.8,46.6,195.9,43.1,195.9,36.5z"/>
		<path d="M202.6,48.1v-3.4c2.4,0.9,4.4,1.7,8.3,1.7c4.4,0,6.2-1.6,6.2-4.1c0-2.6-1.3-3.7-4.8-4.7l-2.7-0.7c-4-1.1-6.8-3-6.8-7.7
			c0-4.7,3.1-7.9,9.5-7.9c3.7,0,6.1,0.8,7.6,1.6v3.5c-1.5-0.7-4.3-1.5-7.3-1.5c-3.8,0-5.6,1.3-5.6,3.9c0,2.4,1.2,3.4,4.1,4.3
			l2.8,0.8c5.3,1.4,7.5,3.2,7.5,8c0,5.3-3.7,8.2-9.8,8.2C207.9,50.1,204.9,49.4,202.6,48.1z"/>
		<path d="M227,43.4V25.5h-4v-3.5h4v-6.6h4.3v6.6h7.1v3.5h-7.1v17.2c0,2.7,0.9,3.8,4.1,3.8c1.2,0,2.5-0.2,3.6-0.5v2.9
			c-1.1,0.5-2.3,1.1-4.7,1.1C229.9,50,227,48.1,227,43.4z"/>
	</g>
</g>
<g>
</g>
<g>
</g>
<g>
</g>
<g>
</g>
<g>
</g>
<g>
</g>
<g>
</g>
<g>
</g>
<g>
</g>
<g>
</g>
<g>
</g>
<g>
</g>
<g>
</g>
<g>
</g>
<g>
</g>
</svg>
