<svg xmlns="http://www.w3.org/2000/svg" xmlns:xlink="http://www.w3.org/1999/xlink" viewBox="0 0 437.227 122.826"><defs><linearGradient id="a" x1=".166" x2="6.371" y1=".5" y2=".5" gradientUnits="objectBoundingBox"><stop offset="0" stop-color="#0dc1e3"/><stop offset=".999" stop-color="#167fcc"/></linearGradient><linearGradient id="b" x1="-.935" x2="5.137" y1=".5" y2=".5" xlink:href="#a"/><linearGradient id="c" x1="-1.627" x2="3.161" y1=".5" y2=".5" xlink:href="#a"/><linearGradient id="d" x1="-3.239" x2="2.635" y1=".5" y2=".5" xlink:href="#a"/><linearGradient id="e" x1="-13.216" x2="4.46" y1=".5" y2=".5" xlink:href="#a"/><linearGradient id="f" x1="-4.879" x2="1.046" y1=".5" y2=".5" xlink:href="#a"/><linearGradient id="g" x1="-.049" x2="20.232" y1=".502" y2=".446" xlink:href="#a"/><linearGradient id="h" x1="-3.031" x2="15.787" y1=".511" y2=".454" xlink:href="#a"/><linearGradient id="i" x1="-5.27" x2="10.829" y1=".521" y2=".463" xlink:href="#a"/><linearGradient id="j" x1="-10.733" x2="10.525" y1=".53" y2=".472" xlink:href="#a"/><linearGradient id="k" x1="-59.53" x2="30.151" y1=".539" y2=".481" xlink:href="#a"/><linearGradient id="l" x1="-16.23" x2="4.305" y1=".547" y2=".489" xlink:href="#a"/><linearGradient id="m" x1="-23.263" x2="1.109" y1=".556" y2=".499" xlink:href="#a"/></defs><g data-name="그룹 8"><g data-name="그룹 6"><path fill="url(#a)" d="M277.727 184.344q18.393 0 27.077 9.082t8.686 26.221v11.766a53.53 53.53 0 0 1-1.944 15.141 26.406 26.406 0 0 1-6.227 11.023 27.49 27.49 0 0 1-11.025 6.8 50.1 50.1 0 0 1-16.339 2.342h-28.9v-82.375zm-14.168 70.036h12.226a34.686 34.686 0 0 0 9.767-1.256 16.522 16.522 0 0 0 11.656-11.256 34.416 34.416 0 0 0 1.541-11.025v-10.625q0-13.026-5.769-18.278t-17.195-5.256h-12.226z" data-name="패스 1" transform="translate(-249.051 -183.086)"/><path fill="url(#b)" d="M315.405 183.819a44.075 44.075 0 0 1 13.31 2 29.094 29.094 0 0 1 18.739 17.31 42.605 42.605 0 0 1 2.8 16.337v13.6a43.387 43.387 0 0 1-2.8 16.509 28.389 28.389 0 0 1-18.623 17.195 47.384 47.384 0 0 1-26.85 0 28.363 28.363 0 0 1-18.621-17.195 43.293 43.293 0 0 1-2.8-16.509v-13.6a42.512 42.512 0 0 1 2.8-16.337 29.81 29.81 0 0 1 7.6-11.026 30.112 30.112 0 0 1 11.14-6.284 44.075 44.075 0 0 1 13.305-2zm0 71.522a27.6 27.6 0 0 0 7.883-1.083 14.958 14.958 0 0 0 6.4-3.83 18.471 18.471 0 0 0 4.283-7.428 38.235 38.235 0 0 0 1.541-11.766v-9.942a38.261 38.261 0 0 0-1.541-11.768 18.487 18.487 0 0 0-4.283-7.425 14.953 14.953 0 0 0-6.4-3.828 27.59 27.59 0 0 0-7.883-1.086 27.162 27.162 0 0 0-7.771 1.086 14.931 14.931 0 0 0-6.4 3.828 18.981 18.981 0 0 0-4.341 7.425 36.907 36.907 0 0 0-1.6 11.768v9.942A36.882 36.882 0 0 0 296.9 243a18.964 18.964 0 0 0 4.341 7.425 14.936 14.936 0 0 0 6.4 3.83 27.166 27.166 0 0 0 7.764 1.086z" data-name="패스 2" transform="translate(-205.038 -183.819)"/><path fill="url(#c)" d="M333.99 209.592q-.913-2.168-1.829-5.084t-2.4-7.37v69.58h-13.594v-82.374h20.795l20.22 51.185 19.424-51.185h21.023v82.375H383.8v-69.58q-1.258 5.141-2.172 7.713t-1.711 4.741l-17.255 43.416h-11.65z" data-name="패스 3" transform="translate(-155.301 -183.086)"/><path fill="url(#d)" d="M429.643 266.719h-15.882l-8-22.621H378l-8.113 22.621h-14.966l30.617-82.375h13.142zm-47.417-34.848h19.309l-5.6-16.795q-1.485-4.113-2.342-6.912t-1.771-5.769q-.46 1.715-.856 3.085t-.856 2.8l-.973 3.027q-.514 1.6-1.316 3.77z" data-name="패스 4" transform="translate(-101.168 -183.086)"/><path fill="url(#e)" d="M390.861 184.344h14.625v82.375h-14.625z" data-name="패스 5" transform="translate(-50.965 -183.086)"/><path fill="url(#f)" d="M404.732 184.344h16.795l28.108 49.926q1.255 2.29 2.8 5.656a38.434 38.434 0 0 1 2.454 7.368v-62.95H468.6v82.375h-16.8l-28.218-50.044a53.135 53.135 0 0 1-2.972-5.939 38.657 38.657 0 0 1-2.172-6.742v62.725h-13.71z" data-name="패스 6" transform="translate(-31.59 -183.086)"/></g><g data-name="그룹 7"><path fill="url(#g)" d="M260.612 223.177a17.485 17.485 0 0 1 5.161.69 13.173 13.173 0 0 1 4.353 2.378L267.479 230a8.836 8.836 0 0 0-3.339-1.857 13.558 13.558 0 0 0-3.528-.443 8.164 8.164 0 0 0-2.416.367 4.849 4.849 0 0 0-2.107 1.323 7.05 7.05 0 0 0-1.5 2.605 12.957 12.957 0 0 0-.578 4.221v2.838a11.353 11.353 0 0 0 .537 3.72 6.958 6.958 0 0 0 1.441 2.493 5.444 5.444 0 0 0 2.09 1.4 7.082 7.082 0 0 0 2.493.441 13.868 13.868 0 0 0 3.929-.594 8.437 8.437 0 0 0 3.665-2.284l2.605 3.761a10.5 10.5 0 0 1-2.589 1.934 15.449 15.449 0 0 1-2.7 1.114 13.217 13.217 0 0 1-2.646.518 27.81 27.81 0 0 1-2.452.113 14.125 14.125 0 0 1-4.317-.652 9.592 9.592 0 0 1-3.6-2.069 10.074 10.074 0 0 1-2.471-3.6 13.574 13.574 0 0 1-.923-5.292V235.1a14.356 14.356 0 0 1 .9-5.35 10.243 10.243 0 0 1 2.476-3.72 9.725 9.725 0 0 1 3.66-2.167 14.219 14.219 0 0 1 4.503-.686z" data-name="패스 7" transform="translate(-249.026 -128.842)"/><path fill="url(#h)" d="M289.9 223.177a14.751 14.751 0 0 1 4.468.671 10.123 10.123 0 0 1 3.739 2.107 10.019 10.019 0 0 1 2.55 3.7 14.289 14.289 0 0 1 .94 5.481v4.566a14.576 14.576 0 0 1-.94 5.541 9.5 9.5 0 0 1-6.251 5.769 15.9 15.9 0 0 1-9.012 0 9.5 9.5 0 0 1-6.249-5.769 14.532 14.532 0 0 1-.942-5.541v-4.562a14.245 14.245 0 0 1 .942-5.481 9.986 9.986 0 0 1 2.548-3.7 10.135 10.135 0 0 1 3.742-2.107 14.721 14.721 0 0 1 4.465-.675zm0 24.007a9.285 9.285 0 0 0 2.646-.364 5.03 5.03 0 0 0 2.148-1.285 6.236 6.236 0 0 0 1.44-2.493 12.9 12.9 0 0 0 .515-3.95v-3.336a12.88 12.88 0 0 0-.515-3.95 6.219 6.219 0 0 0-1.44-2.493 4.985 4.985 0 0 0-2.148-1.285 9.285 9.285 0 0 0-2.646-.364 9.148 9.148 0 0 0-2.608.364 4.95 4.95 0 0 0-2.145 1.285 6.356 6.356 0 0 0-1.459 2.493 12.394 12.394 0 0 0-.535 3.95v3.336a12.415 12.415 0 0 0 .535 3.95 6.374 6.374 0 0 0 1.459 2.493 4.994 4.994 0 0 0 2.145 1.285 9.148 9.148 0 0 0 2.608.364z" data-name="패스 8" transform="translate(-208.328 -128.842)"/><path fill="url(#i)" d="M314.732 231.828q-.309-.73-.614-1.707a162.72 162.72 0 0 0-.805-2.474V251h-4.564v-27.65h6.98l6.788 17.181 6.519-17.181h7.056V251h-4.64v-23.352q-.42 1.726-.729 2.589t-.575 1.592l-5.791 14.571h-3.912z" data-name="패스 9" transform="translate(-165.663 -128.596)"/><path fill="url(#j)" d="M341.357 223.353H352.1q8.7 0 8.705 6.747v.808a7.57 7.57 0 0 1-.211 1.783 4.8 4.8 0 0 1-.731 1.611 4.951 4.951 0 0 1-1.359 1.3 6.782 6.782 0 0 1-2.071.863 7.211 7.211 0 0 1 4.084 1.9 5.861 5.861 0 0 1 1.551 4.391v.959a6.842 6.842 0 0 1-2.145 5.35Q357.771 251 353.286 251h-11.929zm4.873 4.065v7.21h3.6q1.417 0 2.55-.079a5.348 5.348 0 0 0 1.877-.42 2.524 2.524 0 0 0 1.153-1.055 4.126 4.126 0 0 0 .4-2.013v-.69a2.316 2.316 0 0 0-1.364-2.359 12.053 12.053 0 0 0-4.465-.594zm0 19.52h4.446a26.108 26.108 0 0 0 2.821-.134 5.831 5.831 0 0 0 1.994-.537 2.62 2.62 0 0 0 1.167-1.134 4.2 4.2 0 0 0 .384-1.953v-.846a3.886 3.886 0 0 0-.362-1.781 2.718 2.718 0 0 0-1.21-1.151 6.6 6.6 0 0 0-2.205-.616 27.481 27.481 0 0 0-3.317-.17h-3.718z" data-name="패스 10" transform="translate(-120.115 -128.596)"/><path fill="url(#k)" d="M370.541 223.353h4.909V251h-4.909z" data-name="패스 11" transform="translate(-79.349 -128.596)"/><path fill="url(#l)" d="M393.789 223.353h5.64l9.432 16.759q.421.766.939 1.9a12.644 12.644 0 0 1 .824 2.471v-21.13h4.6V251h-5.637l-9.472-16.8a18.414 18.414 0 0 1-1-1.994 12.827 12.827 0 0 1-.729-2.265V251h-4.6z" data-name="패스 12" transform="translate(-46.876 -128.596)"/><path fill="url(#m)" d="M441.725 223.353v4.065H428.8v7.44h12.118v3.988H428.8v8.092H442V251h-18.067v-27.65z" data-name="패스 13" transform="translate(-4.769 -128.596)"/></g></g></svg>