<?xml version="1.0" encoding="utf-8"?>
<!-- Generator: Adobe Illustrator 15.0.0, SVG Export Plug-In . SVG Version: 6.00 Build 0)  -->
<!DOCTYPE svg PUBLIC "-//W3C//DTD SVG 1.1//EN" "http://www.w3.org/Graphics/SVG/1.1/DTD/svg11.dtd">
<svg version="1.1" xmlns="http://www.w3.org/2000/svg" xmlns:xlink="http://www.w3.org/1999/xlink" x="0px" y="0px"
	 width="180.496px" height="27.305px" viewBox="0 0 180.496 27.305" enable-background="new 0 0 180.496 27.305"
	 xml:space="preserve">
<g id="Layer_1">
	<g>
		<path fill="#CE0000" d="M8.813,2.952c1.35,0,2.619,0.216,3.807,0.648c1.188,0.432,2.223,1.098,3.105,1.998
			c0.864,0.882,1.53,1.854,1.998,2.916c0.468,1.062,0.702,2.349,0.702,3.861c0.018,1.548-0.234,2.947-0.756,4.199
			c-0.522,1.25-1.152,2.264-1.89,3.037c-0.756,0.773-1.674,1.413-2.754,1.917c-1.08,0.503-2.421,0.756-4.023,0.756H0.875
			c0.036-0.019,0.284-0.194,0.743-0.526c0.459-0.334,0.688-0.761,0.688-1.283V4.788c0-0.54-0.229-0.977-0.688-1.31
			S0.912,2.97,0.875,2.952H8.813z M8.813,20.205c0.918,0,1.719-0.197,2.403-0.594s1.296-0.883,1.836-1.459
			c0.468-0.504,0.836-1.313,1.106-2.43c0.27-1.115,0.405-2.223,0.405-3.321c0-1.134-0.126-2.128-0.378-2.983
			s-0.648-1.616-1.188-2.282c-0.522-0.63-1.161-1.139-1.917-1.525S9.569,5.031,8.813,5.031H5.952v15.174H8.813z"/>
		<path fill="#CE0000" d="M23.826,20.475c0,0.522,0.229,0.949,0.688,1.283c0.459,0.332,0.707,0.508,0.743,0.526h-6.534
			c0.036-0.019,0.284-0.194,0.743-0.526c0.459-0.334,0.688-0.761,0.688-1.283V4.788c0-0.54-0.229-0.977-0.688-1.31
			s-0.707-0.508-0.743-0.526h6.534c-0.036,0.018-0.284,0.193-0.743,0.526s-0.688,0.77-0.688,1.31V20.475z"/>
		<path fill="#CE0000" d="M31.332,14.13v6.345c0,0.522,0.234,0.949,0.702,1.283c0.468,0.332,0.72,0.508,0.756,0.526h-6.534
			c0.036-0.019,0.284-0.194,0.743-0.526c0.459-0.334,0.688-0.761,0.688-1.283V4.761c0-0.522-0.229-0.95-0.688-1.283
			s-0.707-0.508-0.743-0.526h7.263c1.206,0,2.25,0.059,3.132,0.176s1.638,0.355,2.268,0.715c0.738,0.432,1.39,1.049,1.958,1.85
			c0.567,0.801,0.851,1.706,0.851,2.713c0,1.44-0.392,2.624-1.175,3.55c-0.783,0.927-1.832,1.58-3.146,1.958l3.996,6.643
			c0.306,0.521,0.76,0.936,1.363,1.241s0.923,0.468,0.959,0.486h-7.128c0.036-0.019,0.266-0.181,0.688-0.486
			s0.481-0.711,0.176-1.215l-3.915-6.453H31.332z M34.301,12.051c1.368,0,2.317-0.4,2.849-1.202
			c0.531-0.801,0.796-1.606,0.796-2.417c0-0.846-0.284-1.625-0.851-2.335s-1.489-1.066-2.767-1.066h-2.997v7.02H34.301z"/>
		<path fill="#CE0000" d="M56.167,20.232c0.558,0,1.008-0.23,1.35-0.689s0.522-0.705,0.541-0.742v3.483H43.288
			c0.036-0.019,0.288-0.189,0.756-0.513c0.468-0.324,0.702-0.747,0.702-1.27V4.788c0-0.54-0.234-0.977-0.702-1.31
			c-0.468-0.333-0.72-0.508-0.756-0.526h14.31v3.51c-0.019-0.036-0.212-0.283-0.581-0.742s-0.796-0.688-1.282-0.688h-7.344v6.237
			h7.047c0.378,0,0.706-0.135,0.985-0.405c0.279-0.27,0.427-0.414,0.446-0.432v3.672c-0.019-0.018-0.167-0.153-0.446-0.405
			c-0.279-0.252-0.607-0.378-0.985-0.378h-7.047v6.913H56.167z"/>
		<path fill="#CE0000" d="M75.407,16.797l-0.729,5.131c-0.018,0-0.14-0.005-0.365-0.014c-0.225-0.01-0.589,0.031-1.093,0.121
			c-0.036,0.018-0.482,0.158-1.337,0.419s-2.137,0.382-3.847,0.364c-2.412-0.036-4.585-0.922-6.521-2.659s-2.902-4.271-2.902-7.601
			c0-2.952,0.927-5.364,2.781-7.236s3.987-2.808,6.399-2.808c1.691,0,2.938,0.144,3.739,0.432c0.801,0.288,1.219,0.45,1.255,0.486
			c0.558,0.09,0.976,0.099,1.255,0.027c0.279-0.072,0.428-0.117,0.446-0.135l0.459,5.211c-0.648-1.044-1.494-1.944-2.538-2.7
			s-2.475-1.098-4.293-1.026c-1.71,0.054-3.096,0.86-4.158,2.417c-1.062,1.557-1.593,3.334-1.593,5.333
			c0,2.106,0.553,3.929,1.66,5.468s2.506,2.345,4.199,2.416c1.98,0.072,3.528-0.257,4.644-0.985S74.831,17.842,75.407,16.797z"/>
		<path fill="#CE0000" d="M77.444,5.085c-0.504,0-0.932,0.229-1.283,0.688s-0.544,0.707-0.58,0.743V2.952h15.984v3.564
			c-0.018-0.036-0.202-0.284-0.554-0.743c-0.351-0.459-0.778-0.688-1.282-0.688h-4.293v15.417c0,0.522,0.229,0.945,0.688,1.27
			c0.459,0.323,0.706,0.494,0.742,0.513h-6.561c0.036-0.019,0.283-0.189,0.742-0.513c0.459-0.324,0.688-0.747,0.688-1.27V5.085
			H77.444z"/>
		<path fill="#202020" d="M105.181,22.284c0.036-0.019,0.288-0.131,0.756-0.337c0.468-0.207,0.702-0.581,0.702-1.121v-7.992H95.541
			v7.992c0,0.54,0.234,0.914,0.702,1.121c0.468,0.206,0.72,0.318,0.756,0.337h-4.616c0.035-0.019,0.287-0.131,0.756-0.337
			c0.468-0.207,0.702-0.581,0.702-1.121V4.41c0-0.54-0.234-0.914-0.702-1.121c-0.469-0.207-0.721-0.319-0.756-0.337h4.616
			c-0.036,0.018-0.288,0.13-0.756,0.337S95.541,3.87,95.541,4.41v7.182h11.098V4.41c0-0.54-0.234-0.914-0.702-1.121
			s-0.72-0.319-0.756-0.337h4.617c-0.036,0.018-0.289,0.13-0.757,0.337S108.34,3.87,108.34,4.41v16.416
			c0,0.54,0.233,0.914,0.701,1.121c0.468,0.206,0.721,0.318,0.757,0.337H105.181z"/>
		<path fill="#202020" d="M122.161,10.617c1.241,1.422,1.862,3.132,1.862,5.129c0,2.017-0.612,3.73-1.836,5.145
			c-1.224,1.412-2.925,2.119-5.103,2.119c-2.16,0-3.861-0.707-5.104-2.119c-1.242-1.414-1.862-3.128-1.862-5.145
			c0-1.998,0.616-3.708,1.85-5.129c1.232-1.422,2.938-2.133,5.116-2.133C119.227,8.483,120.919,9.195,122.161,10.617z
			 M120.946,19.973c0.863-1.197,1.296-2.605,1.296-4.227c0-1.601-0.433-3-1.296-4.198c-0.864-1.197-2.151-1.796-3.861-1.796
			s-3.002,0.599-3.875,1.796s-1.309,2.597-1.309,4.198c0,1.621,0.436,3.029,1.309,4.227s2.165,1.795,3.875,1.795
			S120.082,21.17,120.946,19.973z"/>
		<path fill="#202020" d="M127.401,10.495c-0.612,0.396-0.954,0.918-1.025,1.566c-0.072,0.9,0.215,1.525,0.863,1.876
			s1.306,0.625,1.972,0.823l2.564,0.729c0.414,0.126,0.878,0.284,1.391,0.473s0.913,0.392,1.201,0.607
			c0.36,0.271,0.685,0.616,0.973,1.04c0.288,0.422,0.404,0.967,0.351,1.633c-0.072,1.008-0.604,1.895-1.593,2.66
			c-0.99,0.764-2.313,1.119-3.969,1.066c-1.116-0.037-2.03-0.244-2.741-0.621c-0.711-0.379-1.084-0.576-1.12-0.594
			c-0.486-0.145-0.828-0.193-1.026-0.148s-0.306,0.066-0.323,0.066l-0.352-3.186c0.558,0.9,1.282,1.647,2.174,2.241
			c0.891,0.594,1.93,0.927,3.118,0.999c1.008,0.072,1.935-0.112,2.781-0.554c0.846-0.44,1.305-1.021,1.377-1.741
			c0.107-0.9-0.131-1.521-0.716-1.863s-1.399-0.666-2.443-0.973l-2.619-0.782c-0.396-0.126-0.752-0.252-1.066-0.378
			c-0.315-0.126-0.68-0.315-1.094-0.567c-0.396-0.252-0.729-0.567-0.999-0.945c-0.27-0.378-0.396-0.909-0.378-1.593
			c0.036-1.116,0.559-2.007,1.566-2.673s2.124-1.008,3.348-1.026c1.063-0.036,1.976,0.158,2.741,0.581
			c0.765,0.423,1.165,0.652,1.201,0.688c0.521,0.162,0.873,0.212,1.053,0.148c0.18-0.063,0.279-0.095,0.297-0.095l0.486,3.375
			c-0.486-0.773-1.233-1.557-2.241-2.349s-2.196-1.161-3.563-1.107C128.742,9.892,128.014,10.099,127.401,10.495z"/>
		<path fill="#202020" d="M144.97,22.18c-0.018,0-0.144,0-0.378,0s-0.531,0.063-0.891,0.189c-0.019,0.018-0.217,0.099-0.595,0.243
			c-0.378,0.144-0.873,0.233-1.484,0.27c-0.288,0.019-0.63-0.036-1.026-0.161c-0.396-0.127-0.729-0.28-0.999-0.46
			c-0.378-0.324-0.68-0.724-0.904-1.201s-0.337-1.021-0.337-1.634v-8.964h-2.16V9.247h2.16V5.629c0-0.54-0.153-0.914-0.46-1.121
			c-0.306-0.207-0.477-0.319-0.513-0.337h3.618c-0.019,0.018-0.185,0.13-0.5,0.337c-0.314,0.207-0.472,0.581-0.472,1.121v3.618h2.16
			v1.215h-2.16v8.937c0,0.703,0.161,1.252,0.485,1.648c0.324,0.396,0.819,0.594,1.485,0.594c0.864,0,1.557-0.252,2.079-0.756
			c0.521-0.504,0.899-1.09,1.134-1.756L144.97,22.18z"/>
		<path fill="#202020" d="M145.329,22.284c0.036-0.019,0.283-0.126,0.742-0.324s0.688-0.567,0.688-1.106V10.701
			c0-0.522-0.229-0.891-0.688-1.107s-0.706-0.333-0.742-0.351h4.536c-0.036,0.018-0.283,0.135-0.742,0.351s-0.688,0.585-0.688,1.107
			v10.152c0,0.539,0.229,0.908,0.688,1.106s0.706,0.306,0.742,0.324H145.329z M146.355,5.085c0.018-0.018,0.076-0.13,0.175-0.337
			c0.1-0.207,0.149-0.445,0.149-0.715c0-0.288-0.05-0.536-0.149-0.743c-0.099-0.207-0.157-0.319-0.175-0.337h2.511
			c-0.019,0.018-0.077,0.126-0.176,0.324s-0.148,0.45-0.148,0.756c0,0.27,0.05,0.508,0.148,0.715s0.157,0.32,0.176,0.337H146.355z"
			/>
		<path fill="#202020" d="M153.632,9.823c0.252,0.369,0.378,0.877,0.378,1.525c0.378-0.576,0.977-1.147,1.796-1.714
			c0.818-0.567,1.75-0.859,2.794-0.878c1.818-0.036,3.258,0.509,4.32,1.634c1.062,1.125,1.593,2.597,1.593,4.415v6.047
			c0,0.541,0.234,0.91,0.702,1.107s0.72,0.306,0.756,0.324h-4.59c0.036-0.019,0.288-0.127,0.756-0.324s0.702-0.566,0.702-1.107
			v-6.074c0-1.35-0.373-2.489-1.12-3.416s-1.868-1.373-3.361-1.337c-0.973,0.019-1.944,0.504-2.916,1.458
			c-0.973,0.954-1.458,2.043-1.458,3.267v6.102c0,0.541,0.233,0.91,0.701,1.107s0.721,0.306,0.757,0.324h-4.563
			c0.036-0.019,0.288-0.127,0.756-0.324s0.702-0.566,0.702-1.107v-9.422c0-0.72-0.216-1.26-0.648-1.62
			c-0.432-0.36-0.666-0.549-0.701-0.567h2.24C153.245,9.26,153.38,9.454,153.632,9.823z"/>
		<path fill="#202020" d="M177.798,19.376c-0.343,0.63-0.955,1.269-1.837,1.917c-0.882,0.647-1.979,0.972-3.294,0.972
			c-1.979,0-3.582-0.607-4.806-1.822s-1.836-2.866-1.836-4.954c0-2.088,0.616-3.73,1.85-4.928c1.232-1.197,2.813-1.796,4.738-1.796
			c1.224,0,2.295,0.279,3.213,0.837s1.575,1.143,1.972,1.755c0-0.612,0.171-1.111,0.513-1.499c0.342-0.387,0.521-0.589,0.54-0.607
			h1.809c-0.018,0.018-0.225,0.216-0.621,0.594c-0.396,0.378-0.594,0.9-0.594,1.566v9.828c0,2.035-0.702,3.52-2.106,4.455
			s-2.889,1.404-4.454,1.404c-1.44,0-2.525-0.207-3.254-0.621c-0.729-0.414-1.111-0.63-1.147-0.647
			c-0.271-0.145-0.554-0.216-0.851-0.216s-0.455,0-0.473,0l-0.297-3.672c0.432,1.188,1.22,2.137,2.362,2.848s2.21,1.066,3.2,1.066
			c1.062,0,2.223-0.319,3.482-0.958c1.26-0.64,1.891-1.778,1.891-3.415V19.376z M176.394,19.363
			c0.918-1.035,1.377-2.327,1.377-3.875c0-1.512-0.459-2.791-1.377-3.834s-2.151-1.566-3.699-1.566c-1.53,0-2.736,0.513-3.618,1.539
			c-0.882,1.026-1.323,2.313-1.323,3.861c0,1.584,0.445,2.885,1.337,3.901c0.891,1.017,2.119,1.525,3.686,1.525
			C174.27,20.915,175.476,20.398,176.394,19.363z"/>
	</g>
</g>
<g id="Layer_2" display="none">
	<g display="inline">
		<path fill="#B4B4B4" d="M94.54,31.858l-1.492-5.188h0.865l0.779,2.995l0.289,1.113c0.013-0.056,0.102-0.412,0.266-1.069
			l0.771-3.039h0.859l0.742,3.011l0.24,0.99l0.284-1.003l0.858-2.998h0.811l-1.556,5.188h-0.858l-0.777-3.106l-0.199-0.885
			l-1.006,3.991H94.54z"/>
		<path fill="#B4B4B4" d="M101.4,31.858l-1.492-5.188h0.866l0.778,2.995l0.29,1.113c0.012-0.056,0.101-0.412,0.266-1.069
			l0.771-3.039h0.859l0.741,3.011l0.24,0.99l0.284-1.003l0.858-2.998h0.811l-1.556,5.188h-0.858l-0.777-3.106l-0.199-0.885
			l-1.005,3.991H101.4z"/>
		<path fill="#B4B4B4" d="M108.261,31.858l-1.492-5.188h0.866l0.778,2.995l0.29,1.113c0.013-0.056,0.101-0.412,0.266-1.069
			l0.771-3.039h0.859l0.741,3.011l0.24,0.99l0.285-1.003l0.857-2.998h0.811l-1.555,5.188h-0.859l-0.777-3.106l-0.199-0.885
			l-1.005,3.991H108.261z"/>
		<path fill="#B4B4B4" d="M113.934,31.858v-1h0.953v1H113.934z"/>
		<path fill="#B4B4B4" d="M119.558,31.858V31.2c-0.314,0.512-0.776,0.768-1.385,0.768c-0.396,0-0.76-0.113-1.09-0.341
			c-0.331-0.228-0.587-0.545-0.769-0.952s-0.272-0.876-0.272-1.405c0-0.516,0.082-0.984,0.248-1.405
			c0.166-0.42,0.413-0.742,0.743-0.967c0.329-0.224,0.699-0.336,1.109-0.336c0.298,0,0.564,0.066,0.797,0.2
			c0.233,0.133,0.423,0.306,0.571,0.52v-2.579h0.828v7.156H119.558z M116.901,29.275c0,0.661,0.133,1.155,0.4,1.482
			c0.268,0.328,0.583,0.491,0.947,0.491c0.367,0,0.68-0.156,0.938-0.47c0.258-0.313,0.387-0.789,0.387-1.432
			c0-0.706-0.131-1.225-0.392-1.556s-0.583-0.496-0.967-0.496c-0.374,0-0.687,0.159-0.938,0.477S116.901,28.591,116.901,29.275z"/>
		<path fill="#B4B4B4" d="M121.638,25.702v-1h0.828v1H121.638z M121.638,31.858v-5.188h0.828v5.188H121.638z"/>
		<path fill="#B4B4B4" d="M123.732,31.858v-5.188h0.75v0.792c0.19-0.367,0.365-0.609,0.525-0.726
			c0.159-0.117,0.336-0.176,0.529-0.176c0.28,0,0.564,0.093,0.852,0.276l-0.293,0.806c-0.202-0.117-0.403-0.176-0.602-0.176
			c-0.18,0-0.342,0.058-0.486,0.173c-0.145,0.116-0.247,0.276-0.31,0.48c-0.092,0.313-0.138,0.654-0.138,1.025v2.712H123.732z"/>
		<path fill="#B4B4B4" d="M130.277,30.171l0.87,0.125c-0.137,0.53-0.389,0.94-0.758,1.233c-0.368,0.292-0.839,0.438-1.412,0.438
			c-0.721,0-1.292-0.233-1.714-0.699s-0.633-1.119-0.633-1.96c0-0.87,0.213-1.546,0.64-2.026c0.428-0.48,0.981-0.721,1.663-0.721
			c0.658,0,1.196,0.235,1.615,0.705s0.629,1.131,0.629,1.983c0,0.052-0.002,0.13-0.005,0.233h-3.683
			c0.032,0.571,0.187,1.008,0.461,1.311c0.274,0.304,0.617,0.455,1.027,0.455c0.306,0,0.567-0.086,0.783-0.257
			C129.979,30.82,130.15,30.547,130.277,30.171z M127.537,28.765h2.75c-0.036-0.435-0.141-0.761-0.313-0.979
			c-0.268-0.337-0.612-0.506-1.036-0.506c-0.384,0-0.707,0.135-0.97,0.404C127.707,27.953,127.563,28.313,127.537,28.765z"/>
		<path fill="#B4B4B4" d="M135.398,29.952l0.828,0.125c-0.088,0.592-0.315,1.055-0.685,1.389c-0.368,0.335-0.822,0.502-1.361,0.502
			c-0.672,0-1.213-0.231-1.622-0.694s-0.613-1.125-0.613-1.989c0-0.559,0.089-1.047,0.266-1.466s0.444-0.733,0.804-0.942
			c0.358-0.21,0.749-0.314,1.171-0.314c0.536,0,0.974,0.143,1.313,0.427c0.339,0.285,0.556,0.689,0.65,1.214l-0.813,0.125
			c-0.078-0.347-0.215-0.608-0.411-0.784c-0.195-0.175-0.432-0.263-0.706-0.263c-0.418,0-0.759,0.158-1.021,0.476
			c-0.263,0.316-0.394,0.818-0.394,1.504c0,0.695,0.126,1.201,0.378,1.517s0.58,0.473,0.984,0.473c0.326,0,0.599-0.106,0.816-0.318
			C135.202,30.719,135.341,30.393,135.398,29.952z"/>
		<path fill="#B4B4B4" d="M138.773,31.064l0.109,0.776c-0.235,0.053-0.445,0.079-0.632,0.079c-0.307,0-0.543-0.051-0.71-0.151
			c-0.166-0.101-0.284-0.233-0.353-0.397s-0.103-0.509-0.103-1.035v-2.979h-0.609V26.67h0.609v-1.284l0.828-0.527v1.812h0.859v0.688
			h-0.859v3.02c0,0.25,0.015,0.41,0.045,0.481s0.079,0.128,0.147,0.17s0.166,0.063,0.292,0.063
			C138.495,31.092,138.62,31.083,138.773,31.064z"/>
		<path fill="#B4B4B4" d="M139.804,31.858v-1h0.953v1H139.804z"/>
		<path fill="#B4B4B4" d="M145.427,29.952l0.828,0.125c-0.088,0.592-0.315,1.055-0.684,1.389c-0.369,0.335-0.822,0.502-1.361,0.502
			c-0.673,0-1.213-0.231-1.622-0.694s-0.614-1.125-0.614-1.989c0-0.559,0.089-1.047,0.266-1.466s0.445-0.733,0.804-0.942
			c0.358-0.21,0.749-0.314,1.172-0.314c0.535,0,0.973,0.143,1.312,0.427c0.34,0.285,0.557,0.689,0.65,1.214l-0.813,0.125
			c-0.077-0.347-0.215-0.608-0.41-0.784c-0.196-0.175-0.432-0.263-0.707-0.263c-0.418,0-0.758,0.158-1.02,0.476
			c-0.263,0.316-0.395,0.818-0.395,1.504c0,0.695,0.127,1.201,0.379,1.517s0.58,0.473,0.984,0.473c0.326,0,0.598-0.106,0.816-0.318
			S145.369,30.393,145.427,29.952z"/>
		<path fill="#B4B4B4" d="M146.661,29.265c0-0.958,0.254-1.667,0.762-2.128c0.422-0.384,0.938-0.575,1.546-0.575
			c0.677,0,1.229,0.233,1.658,0.699c0.43,0.466,0.644,1.109,0.644,1.931c0,0.666-0.095,1.189-0.285,1.571s-0.467,0.678-0.829,0.889
			s-0.759,0.316-1.188,0.316c-0.689,0-1.246-0.232-1.671-0.696C146.874,30.807,146.661,30.139,146.661,29.265z M147.521,29.27
			c0,0.662,0.138,1.157,0.412,1.486c0.273,0.329,0.618,0.493,1.033,0.493c0.412,0,0.756-0.165,1.032-0.496
			c0.275-0.33,0.413-0.835,0.413-1.512c0-0.639-0.138-1.122-0.413-1.452c-0.276-0.328-0.62-0.493-1.032-0.493
			c-0.415,0-0.76,0.164-1.033,0.491C147.658,28.114,147.521,28.609,147.521,29.27z"/>
		<path fill="#B4B4B4" d="M152.477,31.858v-1h0.953v1H152.477z"/>
		<path fill="#B4B4B4" d="M154.897,31.858v-7.156h0.828v4.088l1.987-2.119h1.085l-1.891,1.931l2.078,3.257h-1.031l-1.648-2.643
			l-0.58,0.593v2.05H154.897z"/>
		<path fill="#B4B4B4" d="M159.632,31.858v-5.188h0.75v0.792c0.189-0.367,0.365-0.609,0.524-0.726
			c0.159-0.117,0.336-0.176,0.53-0.176c0.28,0,0.564,0.093,0.852,0.276l-0.294,0.806c-0.202-0.117-0.403-0.176-0.602-0.176
			c-0.18,0-0.342,0.058-0.485,0.173c-0.145,0.116-0.248,0.276-0.311,0.48c-0.092,0.313-0.137,0.654-0.137,1.025v2.712H159.632z"/>
	</g>
</g>
</svg>
