<svg xmlns="http://www.w3.org/2000/svg" version="1.1" x="0px" y="0px" width="178.212px" height="20.624px" viewBox="0 0 178.212 20.624" enable-background="new 0 0 178.212 20.624" ><g><path d="M100.899 12.038c2.819-0.412 6.1 4.2 3.2 6.3 c-0.264 0.2-0.777 0.236-1.244 0.498c-0.828 0.463-1.871 1.788-3.234 1.741c-1.096-0.037-2.029-1.155-2.364-1.99 C96.031 15.5 98.2 12.4 100.9 12.038z M98.909 17.761c0.287-0.04 0.5 0 0.6 0.1 c-1.295-1.808 0.73-3.447 1.865-4.354C99.174 13.5 98.3 16.1 98.9 17.761z M104.01 17.1 c1.039-0.78 0.194-3.017-1.243-3.11C103.302 14.9 104.2 15.5 104 17.139z M100.899 15.5 c0.423 0 0.463-0.366 0.621-0.622C101.161 15 101 15.2 100.9 15.521z M101.272 18.4 c1.688 0.3 2.193-1.167 1.741-2.612c-0.171 0.005-0.273-0.059-0.372-0.124C102.63 17 101.7 17.4 101.3 18.383z M101.023 19.254c-0.956-0.372-2.177-0.478-2.986-0.996C98.161 19.5 100.1 20.3 101 19.254z" style="clip-rule:evenodd;fill-rule:evenodd;"/><g><path d="M13.15 19.906V8.686c0-2.373-1.247-3.217-3.177-3.217c-1.85 0-3.056 1.005-3.78 1.89v12.547H0V0.482h6.193 v2.373C7.359 1.5 9.7 0 12.9 0c4.383 0 6.4 2.6 6.4 6.152v13.754H13.15z" style="fill: #8DC63F;"/><path d="M33.698 19.906v-1.931c-1.207 1.448-3.539 2.413-6.032 2.413c-2.976 0-6.675-2.051-6.675-6.394 c0-4.706 3.699-6.274 6.675-6.274c2.574 0 4.9 0.8 6 2.292V8.083c0-1.689-1.448-2.855-3.94-2.855 c-1.931 0-3.861 0.764-5.43 2.091l-2.292-4.302C24.529 0.9 27.9 0 30.8 0c4.665 0 9 1.7 9 7.761v12.146H33.698z M33.698 14.919V13.19c-0.644-0.926-2.091-1.368-3.458-1.368c-1.609 0-3.097 0.724-3.097 2.252s1.488 2.3 3.1 2.3 C31.607 16.3 33.1 15.8 33.7 14.919z" style="fill: #8DC63F;"/><path d="M67.276 19.906V8.083c0-1.488-0.724-2.613-2.574-2.613c-1.689 0-2.895 1.085-3.499 1.89v12.547h-6.193 V8.083c0-1.488-0.684-2.613-2.533-2.613c-1.689 0-2.856 1.085-3.499 1.89v12.547h-6.193V0.482h6.193v2.373 C49.823 1.7 52.3 0 55.4 0c2.814 0 4.7 1.2 5.5 3.458C62.008 1.8 64.5 0 67.6 0c3.58 0 5.8 1.9 5.8 5.8 v14.076H67.276z" style="fill: #8DC63F;"/><path d="M75.118 10.174C75.118 4.5 79.3 0 85.4 0c5.75 0 9.9 4.2 9.9 10.817v1.407H81.511 c0.442 1.7 2.1 3.2 4.9 3.177c1.367 0 3.619-0.603 4.745-1.648l2.695 4.062c-1.931 1.728-5.148 2.573-8.124 2.6 C79.702 20.4 75.1 16.5 75.1 10.174z M85.413 4.986c-2.695 0-3.741 1.608-3.982 3.016h8.003 C89.272 6.6 88.3 5 85.4 4.986z" style="fill: #8DC63F;"/><path d="M106.271 10.174C106.271 4.1 110.8 0 116.8 0c4.223 0 6.8 1.9 8 3.579l-4.021 3.7 c-0.765-1.125-2.012-1.849-3.66-1.849c-2.574 0-4.544 1.769-4.544 4.705s1.97 4.7 4.5 4.745c1.648 0 2.896-0.805 3.66-1.89 l4.021 3.78c-1.166 1.688-3.739 3.579-7.962 3.579C110.774 20.4 106.3 16.2 106.3 10.174z" style="fill: #000;"/><path d="M124.769 10.174c0-5.469 3.94-10.174 10.536-10.174c6.676 0 10.6 4.7 10.6 10.2 s-3.94 10.215-10.616 10.215C128.709 20.4 124.8 15.6 124.8 10.174z M139.567 10.174c0-2.574-1.528-4.705-4.263-4.705 c-2.654 0-4.183 2.131-4.183 4.705c0 2.6 1.5 4.7 4.2 4.745C138.039 14.9 139.6 12.8 139.6 10.174z" style="fill: #000;"/><path d="M172.06 19.906V8.083c0-1.488-0.725-2.613-2.574-2.613c-1.688 0-2.896 1.085-3.498 1.89v12.547h-6.194 V8.083c0-1.488-0.684-2.613-2.533-2.613c-1.688 0-2.854 1.085-3.498 1.89v12.547h-6.193V0.482h6.193v2.373 C154.605 1.7 157.1 0 160.2 0c2.815 0 4.7 1.2 5.5 3.458C166.791 1.8 169.3 0 172.4 0 c3.579 0 5.8 1.9 5.8 5.831v14.076H172.06z" style="fill: #000;"/></g></g></svg>